<svg xmlns="http://www.w3.org/2000/svg" width="50px" height="50px" viewBox="0 0 48 48"><title>12-law</title><g id="_12-law" data-name="12-law"><path d="M24,48a1,1,0,0,1-1-.985h0V47h0v0a2.852,2.852,0,0,0-3-3H1a1,1,0,0,1-1-1V11a1,1,0,0,1,1-1H8v2H2V42H20a4.645,4.645,0,0,1,4,1.875A4.645,4.645,0,0,1,28,42H46V12H40V10h7a1,1,0,0,1,1,1V43a1,1,0,0,1-1,1H28a2.853,2.853,0,0,0-3,3.005A1,1,0,0,1,24,48Z"></path><rect x="23" y="36" width="2" height="11"></rect><path d="M13,26a7.008,7.008,0,0,1-7-7,1,1,0,0,1,1-1H19a1,1,0,0,1,1,1A7.008,7.008,0,0,1,13,26ZM8.1,20a5,5,0,0,0,9.8,0Z"></path><path d="M18.143,19.515,13,10.944,7.857,19.515l-1.714-1.03,6-10a1.039,1.039,0,0,1,1.714,0l6,10Z"></path><path d="M35,26a7.008,7.008,0,0,1-7-7,1,1,0,0,1,1-1H41a1,1,0,0,1,1,1A7.008,7.008,0,0,1,35,26Zm-4.9-6a5,5,0,0,0,9.8,0Z"></path><path d="M40.143,19.515,35,10.944l-5.143,8.571-1.714-1.03,6-10a1.039,1.039,0,0,1,1.714,0l6,10Z"></path><rect x="13" y="8" width="22" height="2"></rect><path d="M24,6a3,3,0,1,1,3-3A3,3,0,0,1,24,6Zm0-4a1,1,0,1,0,1,1A1,1,0,0,0,24,2Z"></path><rect x="23" y="5" width="2" height="24"></rect><path d="M32,34H16a1,1,0,0,1-1-1V31a3,3,0,0,1,3-3H30a3,3,0,0,1,3,3v2A1,1,0,0,1,32,34ZM17,32H31V31a1,1,0,0,0-1-1H18a1,1,0,0,0-1,1Z"></path><rect x="28" y="37" width="15" height="2"></rect><rect x="36" y="32" width="7" height="2"></rect><rect x="5" y="37" width="15" height="2"></rect><rect x="5" y="32" width="7" height="2"></rect><rect x="27" y="46" width="19" height="2"></rect><rect x="2" y="46" width="19" height="2"></rect></g></svg>